<?xml version="1.0" encoding="UTF-8" standalone="no"?>
<!DOCTYPE svg PUBLIC "-//W3C//DTD SVG 1.1//EN" "http://www.w3.org/Graphics/SVG/1.1/DTD/svg11.dtd">
<svg width="100%" height="100%" viewBox="0 0 689 689" version="1.1" xmlns="http://www.w3.org/2000/svg" xmlns:xlink="http://www.w3.org/1999/xlink" xml:space="preserve" xmlns:serif="http://www.serif.com/" style="fill-rule:evenodd;clip-rule:evenodd;stroke-linejoin:round;stroke-miterlimit:2;">
    <g transform="matrix(1,0,0,1,-4470,-2061)">
        <g id="Artboard7" transform="matrix(1,0,0,1,-0.445992,-0.331641)">
            <rect x="4470.45" y="2061.33" width="688.872" height="688.872" style="fill:none;"/>
            <clipPath id="_clip1">
                <rect x="4470.45" y="2061.33" width="688.872" height="688.872"/>
            </clipPath>
            <g clip-path="url(#_clip1)">
                <g transform="matrix(2.29683,1.68877e-16,-9.28825e-16,1.86698,4558.9,2267.21)">
                    <g transform="matrix(0.812849,0,0,1,-153.855,-698.701)">
                        <path d="M319.839,805.467L242.329,769.186C237.814,767.073 235.485,762.008 236.819,757.205L283.492,589.18L358.1,588.427L412.563,753.25C414.172,758.118 411.922,763.423 407.304,765.651L324.768,805.467L324.768,944.899L416.874,954.341L413.081,957.404L236.445,957.404L236.444,957.402C235.9,956.764 235.754,955.877 236.065,955.098C236.376,954.32 237.093,953.777 237.927,953.689L319.839,945.036L319.839,805.467Z" style="fill:rgb(207,231,222);"/>
                    </g>
                    <g transform="matrix(0.812849,0,0,1,-153.855,-698.701)">
                        <clipPath id="_clip2">
                            <rect x="248.281" y="661.341" width="152.916" height="132.482"/>
                        </clipPath>
                        <g clip-path="url(#_clip2)">
                            <path d="M251.686,760.786C249.72,759.865 248.706,757.66 249.287,755.569C255.852,731.935 292.315,600.667 292.315,600.667L349.762,600.087C349.762,600.087 392.175,728.442 399.973,752.041C400.673,754.16 399.693,756.47 397.683,757.44C384.571,763.765 338.597,785.944 325.67,792.18C323.516,793.219 321.009,793.234 318.842,792.22C306.455,786.422 264.045,766.57 251.686,760.786Z" style="fill:url(#_Linear3);"/>
                        </g>
                    </g>
                    <g transform="matrix(1.78442,-0.484713,0.393998,2.19527,-667.417,-1358.75)">
                        <path d="M268.608,698.529L280.241,700.814L272.139,709.435L282.111,716.602L287.824,706.319L293.433,716.602L303.301,709.435L295.303,700.814L306.833,698.529L303.093,686.895L292.394,691.985L293.849,680.248L281.592,680.248L283.046,691.881L272.451,686.895L268.608,698.529Z" style="fill:rgb(104,53,252);"/>
                    </g>
                    <g transform="matrix(1.47618,0.274907,-0.223458,1.81605,-177.141,-1322.93)">
                        <path d="M268.608,698.529L280.241,700.814L272.139,709.435L282.111,716.602L287.824,706.319L293.433,716.602L303.301,709.435L295.303,700.814L306.833,698.529L303.093,686.895L292.394,691.985L293.849,680.248L281.592,680.248L283.046,691.881L272.451,686.895L268.608,698.529Z" style="fill:rgb(46,14,140);"/>
                    </g>
                </g>
            </g>
        </g>
    </g>
    <defs>
        <linearGradient id="_Linear3" x1="0" y1="0" x2="1" y2="0" gradientUnits="userSpaceOnUse" gradientTransform="matrix(1.75521e-14,-286.648,286.648,1.75521e-14,337.153,805.467)"><stop offset="0" style="stop-color:rgb(252,53,180);stop-opacity:1"/><stop offset="0.44" style="stop-color:rgb(252,53,180);stop-opacity:0.698039"/><stop offset="1" style="stop-color:rgb(252,53,180);stop-opacity:0"/></linearGradient>
    </defs>
</svg>
