<?xml version="1.0" encoding="UTF-8" standalone="no"?><!DOCTYPE svg PUBLIC "-//W3C//DTD SVG 1.1//EN" "http://www.w3.org/Graphics/SVG/1.1/DTD/svg11.dtd"><svg width="100%" height="100%" viewBox="0 0 2188 355" version="1.1" xmlns="http://www.w3.org/2000/svg" xmlns:xlink="http://www.w3.org/1999/xlink" xml:space="preserve" xmlns:serif="http://www.serif.com/" style="fill-rule:evenodd;clip-rule:evenodd;stroke-linejoin:round;stroke-miterlimit:2;"><g><path d="M309.085,15.935l0,-15.935l1317.85,0c50.71,0 86.352,11.679 111.097,33.686l-0,-33.686l380.034,0l69.925,66.758l0,287.659l-168.33,0l-40.645,-40.645l0,40.645l-541.364,0l-40.534,-40.534c-32.551,27.22 -82.685,40.534 -148.984,40.534l-670.363,0l-168.923,-106.173l0,106.173l-167.949,0l-67.325,-67.325l-0,-97.876l-106.25,0l-67.325,-67.324l0,-121.892l228.435,0c34.556,0 60.783,5.698 80.65,15.935Z"/><g><path d="M1785.22,215.078l-0,97.795l-166.693,0l-42.989,-42.989l42.989,-20.151l57.495,0l-0,-40.748c-0,-46.08 -11.423,-61.312 -47.595,-61.312l-25.892,-0l-38.457,165.2l-109.212,0l-42.989,-42.989l69.254,-61.661c8.746,-33.512 -0.762,-54.458 -31.214,-54.458l-13.703,0l-33.544,-33.544l-0,78.863c-0,86.404 -56.692,113.789 -154.53,113.789l-294.966,0l-42.989,-42.989l42.989,-122.211l-29.691,-0l-37.731,-37.732l-0,78.86c-0,13.659 -1.349,25.856 -4.107,36.652l24.281,24.28l-0,63.14l-310.941,0l-42.989,-42.989l211.235,-20.151c7.232,-9.139 13.323,-25.515 13.323,-59.408l-0,-42.652l-181.569,-0l-32.778,-32.779c2.469,44.483 -9.669,92.44 -59.359,132.889l-70.399,-34.259l-42.989,-42.989l52.155,-22.862l-47.992,-0l-42.989,-42.989l42.989,-20.151l121.785,-42.989l42.989,42.989c0.995,5.238 1.847,10.569 2.513,15.972l34.075,-15.972l247.777,-42.989l42.99,42.989l-0,17.686l37.731,-17.686l94.377,-42.989l42.989,42.989l-0,12.499l26.665,-12.499l101.256,-42.989l42.989,42.989l0,11.785l25.142,-11.785l102.78,-42.989l42.989,42.989l-0,13.513l16.043,-21.624l16.672,-33.178c35.764,0 81.481,58.785 83.001,94.159l15.231,-52.87l136.313,-0c19.297,-0 35.809,1.763 49.798,5.652l-4.592,-20.85l38.196,38.309c22.46,19.928 31.888,54.072 31.888,107.434Zm-0,54.806l42.68,-78.77l66.589,-42.989l42.989,42.989l0,121.759l-109.578,0l-42.68,-42.989Zm-553.461,-147.353l0,61.701c0,30.085 -6.848,52.553 -25.111,66.643l22.448,0c44.186,0 65.518,-18.279 65.518,-68.547l-0,-34.655l-37.713,-0l-25.142,-25.142Zm-170.91,-1.523l-0,130.248l9.142,0c44.568,-1.523 55.235,-11.044 55.235,-55.219l-0,-48.364l-37.712,-0l-26.665,-26.665Zm-713.743,-14.984c14.364,14.546 20.205,37.214 20.205,70.197l-0,136.652l-109.198,0l-42.989,-42.989c-0,-38.445 30.808,-122.211 -1.928,-122.211l-128.658,-0l-42.989,-42.989l42.989,-20.151l186.891,-0c16.52,-0 33.437,-20.724 33.437,-20.724l41.744,41.719c0.166,0.165 0.331,0.33 0.496,0.496Zm1689.77,206.849l-42.989,-42.989l19.644,-122.211l-190.959,-0l-42.989,-42.989l12.71,-35.192l310.915,-26.248l43.246,41.289l0,228.34l-109.578,0Z" style="fill:#fa6161;"/><path d="M215.119,155.69c-0,-38.445 -12.181,-51.006 -44.917,-51.006l-128.658,-0l-0,-63.14l186.891,-0c71.53,-0 95.882,24.343 95.882,91.688l-0,136.652l-109.198,0l-0,-114.194Zm174.336,14.845c19.032,-25.122 24.742,-44.535 25.123,-65.851l-63.949,-0l-0,-63.14l164.774,-0c9.895,52.109 5.708,113.385 -55.549,163.25l-70.399,-34.259Zm473.477,36.209l-0,63.14l-310.941,0l-0,-63.14l168.246,0c7.232,-9.139 13.322,-25.515 13.322,-59.409l0,-42.651l-181.568,-0l-0,-63.14l290.766,-0l0,104.268c0,25.135 -4.566,45.319 -14.078,60.932l34.253,0Zm350.975,-165.2l145.769,-0l-0,114.551c-0,86.404 -56.692,113.789 -154.53,113.789l-294.966,0l-0,-165.2l-29.691,-0l0,-63.14l137.366,-0l-0,166.723l9.142,0c44.568,-1.523 55.235,-11.044 55.235,-55.219l-0,-48.364l-37.712,-0l-0,-63.14l144.245,-0l0,99.699c0,30.085 -6.848,52.553 -25.111,66.643l22.448,0c44.185,0 65.518,-18.279 65.518,-68.547l-0,-34.655l-37.713,-0l0,-63.14Zm224.229,123.69c8.747,-33.512 -0.761,-54.458 -31.213,-54.458l-13.703,0l0,-69.232l24.362,-0c35.763,-0 56.29,17.496 57.81,52.87l15.231,-52.87l136.313,-0c84.09,-0 115.29,33.471 115.29,130.545l-0,97.795l-166.693,0l-0,-63.14l57.495,0l-0,-40.748c-0,-46.08 -11.423,-61.312 -47.595,-61.312l-25.892,-0l-38.457,165.2l-109.212,0l26.264,-104.65Zm555.745,104.65l-0,-165.2l-214.304,-0l-0,-63.14l323.882,-0l0,228.34l-109.578,0Zm-208.975,0l-0,-121.759l109.578,-0l0,121.759l-109.578,0Z" style="fill:#fadf61;"/></g></g></svg>